<svg width="1280" height="1285" viewBox="0 0 1280 1285" fill="none" xmlns="http://www.w3.org/2000/svg">
<path d="M550.017 78.4446C577.444 53.8011 604.395 30.088 630.712 5.69129C638.224 -1.2723 642.645 -2.33599 651.063 5.24998C720.383 67.7197 790.384 129.433 859.914 191.67C926.742 251.489 993.2 311.72 1059.92 371.659C1118.79 424.55 1177.81 477.281 1236.75 530.105C1242.92 535.633 1248.14 542.781 1255.19 546.655C1278.21 559.307 1280.8 579.226 1279.83 602.776C1278.42 637.252 1279.3 671.839 1279.88 706.367C1280.03 715.494 1277.49 722.373 1270.77 728.235C1244.77 750.905 1218.59 773.388 1193.04 796.561C1182.81 805.842 1173.82 805.842 1163.95 797.044C1134.09 770.417 1104.21 743.804 1074.33 717.191C1014.53 663.921 954.72 610.66 894.927 557.38C875.907 540.432 875.608 540.096 892.874 522.551C903.808 511.441 915.922 501.497 927.393 490.907C933.64 485.141 938.831 487.132 944.083 492.392C966.202 514.542 989.444 535.465 1012.75 556.366C1069.23 607.019 1125.1 658.343 1181.63 709.764C1195.48 701.206 1205.12 692.153 1203.93 674.482C1202.63 655.228 1203.34 635.816 1203.71 616.482C1203.85 608.906 1201.28 603.615 1195.66 598.57C1119.63 530.328 1043.71 461.973 967.994 393.388C960.965 387.021 955.77 387.206 949.082 393.271C890.783 446.14 832.364 498.876 773.971 551.641C747.002 576.01 719.995 600.337 693.037 624.721C679.945 636.563 679.502 637.837 692.1 649.203C736.174 688.969 780.639 728.302 824.852 767.915C869.719 808.112 914.458 848.453 959.283 888.698C961.261 890.474 963.543 891.912 966.473 894.097C983.238 879.206 999.721 864.64 1016.12 849.979C1032.23 835.568 1048.55 821.36 1064.2 806.46C1071.38 799.63 1076.34 799.049 1083.62 806.566C1095.45 818.777 1108.15 830.195 1121.04 841.303C1128.8 847.994 1127.71 853.096 1120.75 859.22C1056.85 915.469 994.242 973.154 930.293 1029.37C851.498 1098.63 774.313 1169.72 696.408 1239.99C682.061 1252.94 667.252 1265.39 653.322 1278.76C644.819 1286.92 638.316 1286.26 629.853 1278.59C583.46 1236.56 536.883 1194.72 490.047 1153.18C422.219 1093.03 354 1033.31 286.175 973.153C245.89 937.421 206.037 901.202 166.002 865.189C155.406 855.657 144.898 846.026 134.263 836.539C129.2 832.023 125.534 826.885 126.539 819.758C128.42 806.413 128.071 792.89 126.172 779.822C122.755 756.298 133.445 740.366 150.308 726.426C186.882 696.194 220.748 662.967 255.218 630.43C263.136 622.956 268.554 621.637 276.826 630.223C289.565 643.447 303.481 655.577 317.319 667.687C324.695 674.142 321.269 678.631 315.955 683.451C294.484 702.923 273.109 722.501 251.505 741.824C237.784 754.096 223.956 766.273 209.725 777.944C200.833 785.236 200.23 790.79 209.37 798.8C240.154 825.775 270.461 853.296 300.758 880.821C317.52 896.049 317.594 896.511 333.819 881.715C401.832 819.691 469.626 757.427 537.63 695.393C558.664 676.205 581.206 658.637 600.861 636.565C594.132 624.931 583.079 617.909 573.707 609.487C512.81 554.767 451.673 500.314 390.584 445.806C378.913 435.392 367.465 424.682 355.243 414.951C347.25 408.587 347.666 404.057 354.907 397.561C368.254 385.586 381.315 373.253 393.882 360.466C400.949 353.275 406.339 353.452 413.661 360.159C449.617 393.097 485.906 425.672 522.08 458.372C547.237 481.113 572.398 503.85 600.033 528.826C600.033 397.217 600.033 268.741 600.033 138.235C586.536 145.695 576.558 156.439 566.127 166.036C486.881 238.951 406.138 310.181 325.614 381.669C244.759 453.45 164.932 526.389 84.554 598.708C79.2993 603.436 77.0701 608.755 77.2136 615.679C78.2906 667.682 76.0106 719.72 78.8854 771.706C79.1153 775.862 79.2224 780.041 75.5664 783.062C70.3898 784.527 68.0744 780.408 65.1499 777.762C46.3768 760.776 27.7975 743.574 8.86973 726.763C2.97817 721.531 -0.14163 716.086 0.00493822 707.793C0.753137 665.483 1.13086 623.163 1.15836 580.846C1.16468 571.131 6.75053 565.333 13.2098 560.312C43.0556 537.114 68.6364 509.221 97.2941 484.677C128.359 458.071 157.526 429.262 187.964 401.908C226.635 367.156 265.89 333.056 304.647 298.4C386.283 225.4 467.758 152.221 550.017 78.4446ZM860.194 907.004C803.286 856.126 746.379 805.249 689.47 754.372C686.726 751.919 684.106 748.994 679.961 751.685C679.961 882.747 679.961 1013.74 679.961 1144.74C681.292 1145.37 682.624 1145.99 683.955 1146.62C757.238 1080.21 830.521 1013.81 904.13 947.108C891.377 931.413 875.748 920.694 860.194 907.004ZM559.9 783.49C552.484 789.687 544.853 795.646 537.687 802.118C490.913 844.358 444.299 886.776 397.506 928.994C377.398 947.136 376.937 947.361 397.345 964.755C463.219 1020.9 525.61 1080.9 590.254 1138.4C592.849 1140.71 594.83 1144.41 600.093 1143.51C600.093 1012.46 600.093 881.345 600.093 746.543C585.453 759.968 573.372 771.046 559.9 783.49ZM793.982 428.81C825.632 403.493 852.738 373.103 884.693 348.061C900.746 335.482 900.714 331.778 884.736 318.384C818.402 262.776 755.827 202.953 690.612 146.1C688.004 143.826 685.703 140.232 679.46 143.209C679.46 271.124 679.46 399.803 679.46 532.08C718.968 496.446 755.744 463.275 793.982 428.81Z" fill="#0099CC"/>
<path d="M445.538 681.504C427.535 665.025 409.165 650.382 392.768 633.5C386.935 627.494 386.353 623.668 392.79 617.842C406.77 605.187 420.332 592.055 433.734 578.784C439.237 573.334 443.637 571.979 450.018 577.799C468.023 594.221 486.37 610.277 504.828 626.192C512.302 632.637 511.782 637.809 504.59 644.13C490.773 656.276 477.347 668.87 463.895 681.425C458.065 686.867 452.43 689.235 445.538 681.504Z" fill="#0099CC" fill-opacity="0.592157"/>
</svg>
