<svg width="1024" height="1024" viewBox="0 0 1024 1024" fill="none" xmlns="http://www.w3.org/2000/svg">
<path d="M480.238 310.21C490.164 301.293 499.916 292.712 509.44 283.883C512.158 281.363 513.758 280.978 516.804 283.723C541.889 306.329 567.221 328.662 592.382 351.184C616.564 372.83 640.614 394.626 664.758 416.316C686.063 435.456 707.42 454.538 728.747 473.654C730.979 475.654 732.869 478.241 735.42 479.643C743.75 484.221 744.688 491.429 744.338 499.951C743.826 512.427 744.146 524.943 744.355 537.438C744.41 540.741 743.492 543.23 741.059 545.351C731.649 553.555 722.176 561.691 712.931 570.077C709.228 573.435 705.974 573.435 702.403 570.251C691.596 560.616 680.785 550.985 669.974 541.355C648.333 522.078 626.689 502.804 605.052 483.524C598.169 477.391 598.061 477.269 604.309 470.92C608.266 466.9 612.649 463.301 616.8 459.469C619.061 457.382 620.939 458.103 622.84 460.006C630.844 468.022 639.255 475.593 647.688 483.157C668.126 501.487 688.346 520.059 708.8 538.667C713.813 535.57 717.303 532.294 716.87 525.9C716.399 518.932 716.657 511.907 716.791 504.911C716.844 502.169 715.911 500.255 713.877 498.429C686.366 473.734 658.892 448.999 631.492 424.18C628.949 421.876 627.069 421.942 624.649 424.137C603.552 443.269 582.412 462.353 561.281 481.447C551.522 490.265 541.749 499.069 531.993 507.892C527.256 512.178 527.096 512.639 531.654 516.752C547.603 531.142 563.694 545.376 579.693 559.71C595.929 574.257 612.119 588.855 628.34 603.418C629.056 604.061 629.882 604.581 630.942 605.372C637.009 599.983 642.973 594.712 648.907 589.407C654.739 584.192 660.643 579.05 666.308 573.659C668.906 571.187 670.699 570.977 673.334 573.697C677.614 578.116 682.211 582.248 686.875 586.267C689.685 588.689 689.289 590.535 686.771 592.751C663.648 613.106 640.991 633.98 617.849 654.322C589.336 679.386 561.405 705.112 533.213 730.542C528.022 735.226 522.663 739.732 517.622 744.571C514.545 747.525 512.192 747.285 509.129 744.51C492.341 729.299 475.486 714.16 458.537 699.128C433.992 677.359 409.305 655.75 384.761 633.98C370.184 621.05 355.762 607.943 341.274 594.911C337.44 591.462 333.637 587.977 329.789 584.543C327.957 582.909 326.63 581.05 326.994 578.471C327.675 573.642 327.548 568.748 326.861 564.019C325.624 555.506 329.493 549.741 335.595 544.697C348.83 533.756 361.085 521.733 373.559 509.958C376.424 507.254 378.385 506.777 381.378 509.884C385.988 514.669 391.024 519.058 396.032 523.441C398.701 525.776 397.461 527.401 395.538 529.145C387.768 536.192 380.033 543.276 372.216 550.269C367.25 554.71 362.246 559.116 357.096 563.339C353.879 565.978 353.66 567.988 356.968 570.887C368.108 580.648 379.075 590.607 390.039 600.568C396.104 606.078 396.131 606.246 402.003 600.891C426.615 578.447 451.147 555.915 475.756 533.466C483.367 526.523 491.525 520.166 498.637 512.179C496.202 507.968 492.203 505.427 488.811 502.38C466.774 482.578 444.65 462.873 422.544 443.148C418.321 439.38 414.178 435.504 409.755 431.983C406.863 429.68 407.013 428.04 409.634 425.689C414.463 421.356 419.19 416.893 423.737 412.266C426.295 409.664 428.246 409.728 430.895 412.155C443.907 424.074 457.038 435.862 470.129 447.695C479.233 455.925 488.338 464.153 498.338 473.191C498.338 425.565 498.338 379.074 498.338 331.847C493.454 334.546 489.843 338.434 486.068 341.907C457.391 368.293 428.173 394.069 399.033 419.939C369.774 445.914 340.887 472.309 311.801 498.479C309.899 500.19 309.092 502.115 309.144 504.621C309.534 523.439 308.709 542.27 309.749 561.082C309.832 562.586 309.871 564.098 308.548 565.192C306.675 565.722 305.837 564.231 304.779 563.274C297.985 557.127 291.262 550.902 284.413 544.819C282.281 542.925 281.152 540.955 281.205 537.954C281.475 522.643 281.612 507.329 281.622 492.015C281.624 488.5 283.646 486.401 285.983 484.585C296.783 476.19 306.04 466.096 316.411 457.214C327.652 447.586 338.207 437.161 349.222 427.263C363.216 414.687 377.421 402.347 391.446 389.806C420.988 363.39 450.471 336.908 480.238 310.21ZM592.483 610.043C571.889 591.631 551.296 573.22 530.703 554.81C529.71 553.922 528.761 552.863 527.261 553.837C527.261 601.265 527.261 648.669 527.261 696.072C527.743 696.299 528.225 696.525 528.707 696.752C555.226 672.722 581.745 648.692 608.382 624.555C603.767 618.876 598.111 614.997 592.483 610.043ZM483.815 565.347C481.131 567.589 478.37 569.745 475.776 572.087C458.85 587.373 441.982 602.723 425.049 618C417.772 624.565 417.606 624.647 424.991 630.941C448.829 651.258 471.406 672.97 494.799 693.778C495.738 694.614 496.455 695.952 498.36 695.626C498.36 648.203 498.36 600.757 498.36 551.976C493.062 556.834 488.69 560.843 483.815 565.347ZM568.523 436.998C579.976 427.836 589.785 416.839 601.348 407.777C607.157 403.225 607.146 401.885 601.364 397.038C577.359 376.915 554.715 355.267 531.116 334.693C530.172 333.87 529.34 332.57 527.08 333.647C527.08 379.936 527.08 426.501 527.08 474.368C541.377 461.473 554.685 449.47 568.523 436.998Z" fill="#0099CC"/>
<path d="M442.431 528.441C435.916 522.477 429.268 517.178 423.335 511.069C421.224 508.896 421.013 507.511 423.342 505.403C428.401 500.824 433.309 496.072 438.159 491.269C440.15 489.297 441.742 488.807 444.051 490.913C450.567 496.856 457.207 502.665 463.886 508.425C466.59 510.757 466.402 512.629 463.8 514.916C458.8 519.311 453.941 523.869 449.073 528.412C446.964 530.381 444.924 531.238 442.431 528.441Z" fill="#0099CC" fill-opacity="0.592157"/>
</svg>
